<svg width="126" height="99" viewBox="0 0 126 99" fill="none" xmlns="http://www.w3.org/2000/svg">
<path d="M0 63.0625C0 61.9924 0.895431 61.125 2 61.125H22C23.1046 61.125 24 61.9924 24 63.0625C24 64.1326 23.1046 65 22 65H2C0.89543 65 0 64.1326 0 63.0625Z" fill="white"/>
<path d="M0 35.9375C0 34.8674 0.895431 34 2 34H22C23.1046 34 24 34.8674 24 35.9375C24 37.0076 23.1046 37.875 22 37.875H2C0.89543 37.875 0 37.0076 0 35.9375Z" fill="white"/>
<path d="M10 49.5C10 48.4299 10.8954 47.5625 12 47.5625H35C36.1046 47.5625 37 48.4299 37 49.5C37 50.5701 36.1046 51.4375 35 51.4375H12C10.8954 51.4375 10 50.5701 10 49.5Z" fill="white"/>
<path d="M37 11.1375C37 9.08014 38.6217 7.42499 40.6375 7.42499L47.5033 7.42499C51.6106 7.42499 55.1269 10.4259 55.8544 14.5406L55.915 14.85L84.2875 14.85L84.2875 30.6436L79.5891 25.8483C78.1644 24.3942 75.8606 24.3942 74.4511 25.8483C73.0416 27.3023 73.0264 29.6536 74.4511 31.0922L85.3636 42.2297C86.7883 43.6837 89.092 43.6837 90.5016 42.2297L101.414 31.0922C102.839 29.6381 102.839 27.2869 101.414 25.8483C99.9894 24.4097 97.6856 24.3942 96.2761 25.8483L91.5777 30.6436L91.5777 14.85L118.465 14.85C121.496 14.85 123.785 17.6653 123.224 20.7126L118.51 46.3753C117.646 51.0623 113.645 54.45 108.977 54.45L62.9627 54.45L63.7356 58.8276C64.0539 60.5911 65.5544 61.875 67.3125 61.875L106.113 61.875C108.128 61.875 109.75 63.5301 109.75 65.5875C109.75 67.6448 108.128 69.3 106.113 69.3L67.3277 69.3C62.0533 69.3 57.5367 65.4483 56.597 60.158L48.7006 15.8709C48.5945 15.2831 48.0944 14.85 47.5033 14.85L40.6375 14.85C38.6217 14.85 37 13.1948 37 11.1375ZM61.25 81.675C61.25 77.5758 64.5086 74.25 68.525 74.25C72.5414 74.25 75.8 77.5758 75.8 81.675C75.8 85.7742 72.5414 89.1 68.525 89.1C64.5086 89.1 61.25 85.7742 61.25 81.675ZM95.2 81.675C95.2 77.5758 98.4586 74.25 102.475 74.25C106.491 74.25 109.75 77.5758 109.75 81.675C109.75 85.7742 106.491 89.1 102.475 89.1C98.4586 89.1 95.2 85.7742 95.2 81.675Z" fill="white"/>
</svg>
