<svg width="98" height="76" viewBox="0 0 98 76" fill="none" xmlns="http://www.w3.org/2000/svg">
<path d="M26 12.181C26 10.5185 27.3375 9.18097 29 9.18097H34.6625C38.05 9.18097 40.95 11.606 41.55 14.931L41.6 15.181H64.9998V27.9435L61.1248 24.0685C59.95 22.8935 58.05 22.8935 56.8875 24.0685C55.725 25.2435 55.7125 27.1435 56.8875 28.306L65.8878 37.306C67.0628 38.481 68.9628 38.481 70.1248 37.306L79.1248 28.306C80.2998 27.131 80.2998 25.231 79.1248 24.0685C77.9498 22.906 76.0498 22.8935 74.8878 24.0685L71.0128 27.9435V15.181H93.1878C95.6878 15.181 97.5748 17.456 97.1128 19.9185L93.2248 40.656C92.5128 44.4435 89.2128 47.181 85.3628 47.181H47.4125L48.05 50.7185C48.3125 52.1435 49.55 53.181 51 53.181H82.9998C84.6628 53.181 85.9998 54.5185 85.9998 56.1806C85.9998 57.8436 84.6628 59.1806 82.9998 59.1806H51.0125C46.6625 59.1806 42.9375 56.0686 42.1625 51.7935L35.65 16.006C35.5625 15.531 35.15 15.181 34.6625 15.181H29C27.3375 15.181 26 13.8435 26 12.181ZM46 69.1806C46 65.8686 48.6875 63.1806 52 63.1806C55.3125 63.1806 58 65.8686 58 69.1806C58 72.4936 55.3125 75.1806 52 75.1806C48.6875 75.1806 46 72.4936 46 69.1806ZM73.9998 69.1806C73.9998 65.8686 76.6878 63.1806 79.9998 63.1806C83.3128 63.1806 85.9998 65.8686 85.9998 69.1806C85.9998 72.4936 83.3128 75.1806 79.9998 75.1806C76.6878 75.1806 73.9998 72.4936 73.9998 69.1806Z" fill="#FF8C00"/>
<path d="M49.84 4.64386L42 12.3597L50.4173 20.9124L58.2573 13.1966L49.84 4.64386Z" fill="#FF8C00"/>
<path d="M69.6138 7.64382L60.9998 10.2844L63.8803 19.6815L72.4944 17.041L69.6138 7.64382Z" fill="#FF8C00"/>
<path d="M66.5234 7.7215L55.2666 5.64374L53 17.9238L64.2567 20.0016L66.5234 7.7215Z" fill="#FF8C00"/>
<path d="M89.8287 2.64383L74.9998 6.48206L79.1869 22.6591L94.0158 18.8208L89.8287 2.64383Z" fill="#FF8C00"/>
<path d="M70.7407 9.49046C70.1177 7.14906 71.1257 4.86996 72.9927 4.39996C74.8597 3.92986 76.8777 5.44686 77.5007 7.78826L78.6646 17.4284C78.8576 20.1074 78.9557 21.4564 77.6197 21.7927C76.2847 22.129 75.2327 20.8406 73.9787 18.0646L70.7407 9.49046Z" fill="#FF8C00"/>
<path d="M68.0068 2.37738C69.2108 2.37738 71.8608 2.84598 72.8238 4.72038C72.8238 4.72038 71.1208 4.26998 70.0138 4.32988C69.2158 4.37298 68.8038 4.78518 68.0068 4.72038C67.1658 4.65188 65.9998 3.93938 65.9998 3.93938C65.9998 3.93938 66.8028 2.37738 68.0068 2.37738Z" fill="#FF8C00" stroke="#FF8C00"/>
<path d="M75.1698 0.760084C74.1818 1.42988 72.2838 3.28789 72.5948 5.36159C72.5948 5.36159 73.7278 4.04478 74.6708 3.47838C75.3508 3.06988 75.9318 3.17859 76.5468 2.68239C77.1968 2.15839 77.7348 0.925386 77.7348 0.925386C77.7348 0.925386 76.1578 0.0902838 75.1698 0.760084Z" fill="#FF8C00" stroke="#FF8C00"/>
<path d="M71.3467 0.896741C71.8197 1.27984 72.7037 2.30674 72.4527 3.34994C72.4527 3.34994 71.9347 2.63124 71.4787 2.30264C71.1507 2.06574 70.8507 2.09664 70.5587 1.81774C70.2517 1.52324 70.0327 0.872342 70.0327 0.872342C70.0327 0.872342 70.8727 0.513641 71.3467 0.896741Z" fill="#FF8C00" stroke="#FF8C00"/>
<path d="M0 48.6437C0 47.5392 0.8954 46.6437 2 46.6437H22C23.1046 46.6437 24 47.5392 24 48.6437C24 49.7483 23.1046 50.6437 22 50.6437H2C0.8954 50.6437 0 49.7483 0 48.6437Z" fill="#FF8C00"/>
<path d="M0 24.6437C0 23.5392 0.8954 22.6437 2 22.6437H22C23.1046 22.6437 24 23.5392 24 24.6437C24 25.7483 23.1046 26.6437 22 26.6437H2C0.8954 26.6437 0 25.7483 0 24.6437Z" fill="#FF8C00"/>
<path d="M8 36.6437C8 35.5392 8.8954 34.6437 10 34.6437H33C34.1046 34.6437 35 35.5392 35 36.6437C35 37.7483 34.1046 38.6437 33 38.6437H10C8.8954 38.6437 8 37.7483 8 36.6437Z" fill="#FF8C00"/>
</svg>
