<svg width="212" height="212" viewBox="0 0 212 212" fill="none" xmlns="http://www.w3.org/2000/svg">
<rect x="43.2783" y="11.3699" width="132.077" height="132.077" rx="32" transform="rotate(3 43.2783 11.3699)" fill="white"/>
<g filter="url(#filter0_d_115_14)">
<rect x="43.2783" y="11.3699" width="132" height="132" rx="32" transform="rotate(3 43.2783 11.3699)" fill="white" fill-opacity="0.01" shape-rendering="crispEdges"/>
</g>
<path d="M65.7702 56.8114C65.7702 55.1489 67.1077 53.8114 68.7702 53.8114L74.4327 53.8114C77.8202 53.8114 80.7202 56.2364 81.3202 59.5614L81.3702 59.8114L104.77 59.8114L104.77 72.5739L100.895 68.6989C99.7202 67.5239 97.8202 67.5239 96.6577 68.6989C95.4952 69.8739 95.4827 71.7739 96.6577 72.9364L105.658 81.9364C106.833 83.1114 108.733 83.1114 109.895 81.9364L118.895 72.9364C120.07 71.7614 120.07 69.8614 118.895 68.6989C117.72 67.5364 115.82 67.5239 114.658 68.6989L110.783 72.5739L110.783 59.8114L132.958 59.8114C135.458 59.8114 137.345 62.0864 136.883 64.5489L132.995 85.2864C132.283 89.0739 128.983 91.8114 125.133 91.8114L87.1827 91.8114L87.8202 95.3489C88.0827 96.7739 89.3202 97.8114 90.7702 97.8114L122.77 97.8114C124.433 97.8114 125.77 99.1489 125.77 100.811C125.77 102.474 124.433 103.811 122.77 103.811L90.7827 103.811C86.4327 103.811 82.7077 100.699 81.9327 96.4239L75.4202 60.6364C75.3327 60.1614 74.9202 59.8114 74.4327 59.8114L68.7702 59.8114C67.1077 59.8114 65.7702 58.4739 65.7702 56.8114ZM85.7702 113.811C85.7702 110.499 88.4577 107.811 91.7702 107.811C95.0827 107.811 97.7702 110.499 97.7702 113.811C97.7702 117.124 95.0827 119.811 91.7702 119.811C88.4577 119.811 85.7702 117.124 85.7702 113.811ZM113.77 113.811C113.77 110.499 116.458 107.811 119.77 107.811C123.083 107.811 125.77 110.499 125.77 113.811C125.77 117.124 123.083 119.811 119.77 119.811C116.458 119.811 113.77 117.124 113.77 113.811Z" fill="#FF8C00"/>
<rect x="81.7702" y="56.9901" width="11" height="12" transform="rotate(-44.5425 81.7702 56.9901)" fill="#FF8C00"/>
<rect x="100.77" y="54.9148" width="9.0097" height="9.82876" transform="rotate(-17.0423 100.77 54.9148)" fill="#FF8C00"/>
<rect x="95.0369" y="50.2742" width="11.4469" height="12.4875" transform="rotate(10.4579 95.0369 50.2742)" fill="#FF8C00"/>
<rect x="114.77" y="51.1125" width="15.3176" height="16.7101" transform="rotate(-14.5116 114.77 51.1125)" fill="#FF8C00"/>
<path d="M110.511 54.1209C109.888 51.7795 110.896 49.5004 112.763 49.0304C114.63 48.5603 116.648 50.0773 117.271 52.4187L118.435 62.0588C118.628 64.7378 118.726 66.0868 117.39 66.4231C116.055 66.7594 115.003 65.471 113.749 62.695L110.511 54.1209Z" fill="#FF8C00"/>
<path d="M107.777 47.0078C108.981 47.0078 111.631 47.4764 112.594 49.3508C112.594 49.3508 110.891 48.9004 109.784 48.9603C108.986 49.0034 108.574 49.4156 107.777 49.3508C106.936 49.2823 105.77 48.5698 105.77 48.5698C105.77 48.5698 106.573 47.0078 107.777 47.0078Z" fill="#FF8C00" stroke="#FF8C00"/>
<path d="M114.94 45.3905C113.952 46.0603 112.054 47.9183 112.365 49.992C112.365 49.992 113.498 48.6752 114.441 48.1088C115.121 47.7003 115.702 47.809 116.317 47.3128C116.967 46.7888 117.505 45.5558 117.505 45.5558C117.505 45.5558 115.928 44.7207 114.94 45.3905Z" fill="#FF8C00" stroke="#FF8C00"/>
<path d="M111.117 45.5272C111.59 45.9103 112.474 46.9372 112.223 47.9804C112.223 47.9804 111.705 47.2617 111.249 46.9331C110.921 46.6962 110.621 46.7271 110.329 46.4482C110.022 46.1537 109.803 45.5028 109.803 45.5028C109.803 45.5028 110.643 45.1441 111.117 45.5272Z" fill="#FF8C00" stroke="#FF8C00"/>
<path d="M39.7702 93.2742C39.7702 92.1697 40.6656 91.2742 41.7702 91.2742L61.7702 91.2742C62.8748 91.2742 63.7702 92.1697 63.7702 93.2742C63.7702 94.3788 62.8748 95.2742 61.7702 95.2742L41.7702 95.2742C40.6656 95.2742 39.7702 94.3788 39.7702 93.2742Z" fill="#FF8C00"/>
<path d="M39.7702 69.2742C39.7702 68.1697 40.6656 67.2742 41.7702 67.2742L61.7702 67.2742C62.8748 67.2742 63.7702 68.1697 63.7702 69.2742C63.7702 70.3788 62.8748 71.2742 61.7702 71.2742L41.7702 71.2742C40.6656 71.2742 39.7702 70.3788 39.7702 69.2742Z" fill="#FF8C00"/>
<path d="M47.7702 81.2742C47.7702 80.1697 48.6656 79.2742 49.7702 79.2742L72.7702 79.2742C73.8748 79.2742 74.7702 80.1697 74.7702 81.2742C74.7702 82.3788 73.8748 83.2742 72.7702 83.2742L49.7702 83.2742C48.6656 83.2742 47.7702 82.3788 47.7702 81.2742Z" fill="#FF8C00"/>
<defs>
<filter id="filter0_d_115_14" x="0" y="0" width="211.467" height="211.467" filterUnits="userSpaceOnUse" color-interpolation-filters="sRGB">
<feFlood flood-opacity="0" result="BackgroundImageFix"/>
<feColorMatrix in="SourceAlpha" type="matrix" values="0 0 0 0 0 0 0 0 0 0 0 0 0 0 0 0 0 0 127 0" result="hardAlpha"/>
<feMorphology radius="12" operator="erode" in="SourceAlpha" result="effect1_dropShadow_115_14"/>
<feOffset dy="25"/>
<feGaussianBlur stdDeviation="25"/>
<feComposite in2="hardAlpha" operator="out"/>
<feColorMatrix type="matrix" values="0 0 0 0 0 0 0 0 0 0 0 0 0 0 0 0 0 0 0.25 0"/>
<feBlend mode="normal" in2="BackgroundImageFix" result="effect1_dropShadow_115_14"/>
<feBlend mode="normal" in="SourceGraphic" in2="effect1_dropShadow_115_14" result="shape"/>
</filter>
</defs>
</svg>
